<svg xmlns="http://www.w3.org/2000/svg" width="478" height="512" viewBox="0 0 478 512">
  <defs>
    <style>
      .cls-1 {
        fill: #45b513;
        fill-rule: evenodd;
      }
    </style>
  </defs>
  <path class="cls-1" d="M435.32,60.51V25.6A25.635,25.635,0,0,0,409.713,0H42.678A25.635,25.635,0,0,0,17.071,25.6V59.733H8.536a8.533,8.533,0,1,0,0,17.066h8.535v34.133a25.555,25.555,0,0,0,17.072,24.03v52.77a34.132,34.132,0,0,0,51.214,29.551V256a34.143,34.143,0,0,0,68.285,0V193.382A29.872,29.872,0,0,0,196.32,166.4V136.532H409.712a25.629,25.629,0,0,0,25.607-25.6V78.012a34.107,34.107,0,0,1,25.607,32.922v34.133c0,16.384-11.711,31.138-27.186,34.295-6.649,1.195-115.437,10.786-186.207,16.905a34.124,34.124,0,0,0-34.142,34.039V281.6H162.177a8.542,8.542,0,0,0-8.373,10.215l8.535,42.667a8.545,8.545,0,0,0,8.373,6.852h8.536v76.8h34.144a8.533,8.533,0,1,1,0,17.066H179.25v17.067h34.142a8.533,8.533,0,1,1,0,17.066H179.25a42.679,42.679,0,0,0,85.357,0v-128h8.535a8.539,8.539,0,0,0,8.366-6.852l8.535-42.667a8.542,8.542,0,0,0-8.364-10.215H230.465V230.305c0-9.523,7.494-16.973,17.806-17.007,30.19-2.594,181.212-15.65,188.825-17.2,23.7-4.847,40.9-26.3,40.9-51.029V110.933A51.239,51.239,0,0,0,435.32,60.51Zm-279.7-23.3a8.535,8.535,0,0,1,13.111,10.931l-42.679,51.2a8.535,8.535,0,0,1-13.111-10.931ZM53.194,88.405l42.679-51.2a8.535,8.535,0,1,1,13.11,10.931L66.3,99.336A8.535,8.535,0,1,1,53.194,88.405Zm126.056,78a12.8,12.8,0,0,1-25.608,0V153.6a8.535,8.535,0,0,0-17.07,0V256a17.072,17.072,0,0,1-34.144,0V162.133a8.535,8.535,0,0,0-17.07,0v25.6a17.072,17.072,0,0,1-34.143,0v-51.2H179.25V166.4h0ZM185.8,99.337a8.535,8.535,0,1,1-13.11-10.931l42.678-51.2a8.535,8.535,0,1,1,13.111,10.931Zm59.751,0a8.535,8.535,0,1,1-13.111-10.931l42.679-51.2a8.535,8.535,0,0,1,13.111,10.931ZM298.74,102.4a8.527,8.527,0,0,1-6.546-13.994l42.678-51.2a8.535,8.535,0,1,1,13.111,10.931L305.3,99.337A8.522,8.522,0,0,1,298.74,102.4ZM399.2,48.137l-42.679,51.2a8.535,8.535,0,1,1-13.11-10.931l42.678-51.2A8.535,8.535,0,1,1,399.2,48.137Z"/>
</svg>
