<svg xmlns="http://www.w3.org/2000/svg" width="475" height="512" viewBox="0 0 475 512">
  <defs>
    <style>
      .cls-1 {
        fill: #45b513;
        fill-rule: evenodd;
      }
    </style>
  </defs>
  <path class="cls-1" d="M412.475,185.7C391.734,171.12,380,162.173,380,147.794V110.846h15.833V79.176H380V63.34H348.333V79.175H332.5v31.67h15.833v36.948c0,14.378-11.734,23.326-32.475,37.9q-3.678,2.585-7.414,5.253L253.334,80.715V47.505h15.833V15.835H253.334V0H221.667V15.835H205.834v31.67h15.833v33.21l-39.881,79.773c-7.656-6.477-15.507-12-22.644-17.019-20.739-14.576-32.474-23.523-32.474-37.9V68.619H142.5V36.949H126.668V21.113H95V36.948H79.167v31.67H95v36.948c0,14.378-11.735,23.326-32.474,37.9C36.138,162.014,0,187.411,0,242.8a110.333,110.333,0,0,0,31.666,77.573V512H443.332V362.6A110.334,110.334,0,0,0,475,285.031C475,229.639,438.862,204.242,412.475,185.7ZM237.5,119.862L275.214,195.3H210.679a97.3,97.3,0,0,0-5.931-9.925ZM31.667,242.8c0-38.939,23.833-55.69,49.066-73.424,10.386-7.3,21.441-15.068,30.1-24.694,8.661,9.626,19.715,17.395,30.1,24.694q3.06,2.148,6.076,4.292L40.859,279.836A78.956,78.956,0,0,1,31.667,242.8ZM158.334,480.33H126.668V427.546a15.833,15.833,0,1,0-31.667,0V480.33H63.335V395.876h95V480.33Zm0-116.124h-95v-31.67h95v31.67Zm6.317-63.34H64.615L171.4,194.067C182.474,206.048,190,220.922,190,242.8A78.846,78.846,0,0,1,164.651,300.866ZM285,343.093V480.33H190V320.377A110.333,110.333,0,0,0,221.667,242.8a115.887,115.887,0,0,0-1.069-15.835H285V343.093h0ZM411.667,480.33H380V469.773a15.834,15.834,0,1,0-31.667,0V480.33H316.668V374.763h95V480.33Zm6.316-137.237H316.667V224.374c5.618-4.486,11.583-8.679,17.4-12.766,10.386-7.3,21.44-15.068,30.1-24.694,8.663,9.627,19.716,17.4,30.1,24.694,25.232,17.733,49.066,34.483,49.066,73.423A78.848,78.848,0,0,1,417.983,343.093ZM221.667,306.144h31.667v63.34H221.667v-63.34Z"/>
</svg>
