<svg xmlns="http://www.w3.org/2000/svg" width="503" height="434" viewBox="0 0 503 434">
  <defs>
    <style>
      .cls-1 {
        fill: #45b513;
        fill-rule: evenodd;
      }
    </style>
  </defs>
  <path class="cls-1" d="M494.326,138.879H381.585V78.119c0-5.208-3.469-8.68-8.673-8.68H199.465V8.68C199.465,3.472,196,0,190.792,0H8.672C3.468,0,0,3.472,0,8.68V425.32C0,430.528,3.468,434,8.672,434H494.328c5.2,0,8.673-3.472,8.673-8.68V147.56C503,142.352,499.53,138.879,494.326,138.879ZM372.913,347.2H320.879v-52.08H424.948V347.2H372.913Zm-121.414,0H199.465v-52.08H303.534V347.2H251.5Zm-121.414,0H78.052v-52.08h104.07V347.2H130.085Zm-112.741,0v-52.08H60.707V347.2H17.344ZM69.379,86.8h52.035v52.08H17.344V86.8H69.379ZM251.5,156.239h52.035v52.08H199.465v-52.08H251.5Zm182.12,69.44h52.035v52.08H381.585v-52.08h52.034Zm-69.378,52.08H260.172v-52.08H364.241v52.08Zm-173.449,0H138.758v-52.08H242.827v52.08H190.792Zm-121.413,0H17.344v-52.08h104.07v52.08H69.379ZM17.344,156.239H60.707v52.08H17.344v-52.08Zm164.776,52.08H78.052v-52.08h104.07v52.08h0Zm260.172,86.8h43.362V347.2H442.292v-52.08Zm43.362-86.8H442.292v-52.08h43.362v52.08Zm-60.707,0H320.878v-52.08H424.947v52.08Zm-60.706-69.44H260.172V86.8H364.241v52.08h0Zm-121.414,0H138.758V86.8H242.827v52.08ZM182.12,69.44H78.052V17.36h104.07V69.44h0ZM17.344,17.36H60.707V69.44H17.344V17.36Zm0,347.2h104.07v52.08H17.344v-52.08Zm121.414,0H242.827v52.08H138.758v-52.08Zm121.414,0H364.241v52.08H260.172v-52.08Zm225.482,52.08H381.586v-52.08H485.655v52.08h0Z"/>
</svg>
