<svg xmlns="http://www.w3.org/2000/svg" width="504" height="504" viewBox="0 0 504 504">
  <defs>
    <style>
      .cls-1 {
        fill: #45b513;
        fill-rule: evenodd;
      }
    </style>
  </defs>
  <path class="cls-1" d="M495.6,0H8.4A8.392,8.392,0,0,0,0,8.4V495.6A8.4,8.4,0,0,0,8.4,504H252a8.4,8.4,0,0,0,8.4-8.4V394.8H462c23.554,0,42-25.83,42-58.8V8.4A8.391,8.391,0,0,0,495.6,0ZM420.847,348.054a0.445,0.445,0,0,1,.017.1,78.013,78.013,0,0,0,2.419,11.045,1.582,1.582,0,0,1,.059.176,67.385,67.385,0,0,0,3.814,9.854,2.024,2.024,0,0,0,.118.227,57.541,57.541,0,0,0,5.007,8.451c0.025,0.025.034,0.067,0.059,0.092H218.4c-13.658,0-25.2-19.236-25.2-42s11.542-42,25.2-42H432.338c-0.025.025-.034,0.059-0.059,0.084a58.184,58.184,0,0,0-5.007,8.458c-0.042.076-.084,0.143-0.118,0.218a67.957,67.957,0,0,0-3.814,9.862,1.4,1.4,0,0,1-.059.168,78.334,78.334,0,0,0-2.419,11.046,0.4,0.4,0,0,1-.017.109A86,86,0,0,0,420.847,348.054ZM462,378c-13.658,0-25.2-19.236-25.2-42s11.542-42,25.2-42,25.2,19.235,25.2,42S475.657,378,462,378ZM487.2,33.6a8.4,8.4,0,1,0,0,16.8V84a8.4,8.4,0,1,0,0,16.8v33.6a8.4,8.4,0,1,0,0,16.8v33.6a8.4,8.4,0,1,0,0,16.8v33.6a8.4,8.4,0,1,0,0,16.8v36.649c-0.159-.168-0.344-0.277-0.5-0.445a43.251,43.251,0,0,0-4.855-4.233c-0.218-.159-0.453-0.3-0.681-0.454a37.259,37.259,0,0,0-4.973-2.931c-0.319-.159-0.638-0.336-0.965-0.487a32.959,32.959,0,0,0-5.713-1.949c-0.42-.1-0.839-0.176-1.252-0.26A31.7,31.7,0,0,0,462,277.2H260.4V226.8a8.4,8.4,0,0,0,0-16.8V176.4a8.4,8.4,0,0,0,0-16.8V126a8.4,8.4,0,0,0,0-16.8V75.6a8.4,8.4,0,0,0,0-16.8V25.2a8.4,8.4,0,0,0,8.4-8.4h33.6a8.4,8.4,0,0,0,16.8,0h33.6a8.4,8.4,0,1,0,16.8,0h33.6a8.4,8.4,0,1,0,16.8,0h33.6a8.4,8.4,0,1,0,16.8,0h16.8V33.6h0Zm-201.6,0a8.4,8.4,0,1,1-8.4,8.4A8.4,8.4,0,0,1,285.6,33.6Zm50.4,0a8.4,8.4,0,1,1-8.4,8.4A8.4,8.4,0,0,1,336,33.6Zm50.4,0A8.4,8.4,0,1,1,378,42,8.4,8.4,0,0,1,386.4,33.6Zm50.4,0a8.4,8.4,0,1,1-8.4,8.4A8.4,8.4,0,0,1,436.8,33.6Zm-126,25.2a8.4,8.4,0,1,1-8.4,8.4A8.4,8.4,0,0,1,310.8,58.8ZM285.6,84a8.4,8.4,0,1,1-8.4,8.4A8.4,8.4,0,0,1,285.6,84ZM336,84a8.4,8.4,0,1,1-8.4,8.4A8.4,8.4,0,0,1,336,84Zm25.2-25.2a8.4,8.4,0,1,1-8.4,8.4A8.4,8.4,0,0,1,361.2,58.8Zm50.4,0a8.4,8.4,0,1,1-8.4,8.4A8.4,8.4,0,0,1,411.6,58.8Zm50.4,0a8.4,8.4,0,1,1-8.4,8.4A8.4,8.4,0,0,1,462,58.8ZM386.4,84a8.4,8.4,0,1,1-8.4,8.4A8.4,8.4,0,0,1,386.4,84Zm50.4,0a8.4,8.4,0,1,1-8.4,8.4A8.4,8.4,0,0,1,436.8,84Zm-126,25.2a8.4,8.4,0,1,1-8.4,8.4A8.4,8.4,0,0,1,310.8,109.2Zm-25.2,25.2a8.4,8.4,0,1,1-8.4,8.4A8.4,8.4,0,0,1,285.6,134.4Zm50.4,0a8.4,8.4,0,1,1-8.4,8.4A8.4,8.4,0,0,1,336,134.4Zm25.2-25.2a8.4,8.4,0,1,1-8.4,8.4A8.4,8.4,0,0,1,361.2,109.2Zm50.4,0a8.4,8.4,0,1,1-8.4,8.4A8.4,8.4,0,0,1,411.6,109.2Zm50.4,0a8.4,8.4,0,1,1-8.4,8.4A8.4,8.4,0,0,1,462,109.2Zm-75.6,25.2a8.4,8.4,0,1,1-8.4,8.4A8.4,8.4,0,0,1,386.4,134.4Zm50.4,0a8.4,8.4,0,1,1-8.4,8.4A8.4,8.4,0,0,1,436.8,134.4Zm-126,25.2a8.4,8.4,0,1,1-8.4,8.4A8.4,8.4,0,0,1,310.8,159.6Zm-25.2,25.2a8.4,8.4,0,1,1-8.4,8.4A8.4,8.4,0,0,1,285.6,184.8Zm50.4,0a8.4,8.4,0,1,1-8.4,8.4A8.4,8.4,0,0,1,336,184.8Zm25.2-25.2a8.4,8.4,0,1,1-8.4,8.4A8.4,8.4,0,0,1,361.2,159.6Zm50.4,0a8.4,8.4,0,1,1-8.4,8.4A8.4,8.4,0,0,1,411.6,159.6Zm50.4,0a8.4,8.4,0,1,1-8.4,8.4A8.4,8.4,0,0,1,462,159.6Zm-75.6,25.2a8.4,8.4,0,1,1-8.4,8.4A8.4,8.4,0,0,1,386.4,184.8Zm50.4,0a8.4,8.4,0,1,1-8.4,8.4A8.4,8.4,0,0,1,436.8,184.8ZM310.8,210a8.4,8.4,0,1,1-8.4,8.4A8.4,8.4,0,0,1,310.8,210Zm-25.2,25.2a8.4,8.4,0,1,1-8.4,8.4A8.4,8.4,0,0,1,285.6,235.2Zm50.4,0a8.4,8.4,0,1,1-8.4,8.4A8.4,8.4,0,0,1,336,235.2ZM361.2,210a8.4,8.4,0,1,1-8.4,8.4A8.4,8.4,0,0,1,361.2,210Zm50.4,0a8.4,8.4,0,1,1-8.4,8.4A8.4,8.4,0,0,1,411.6,210Zm50.4,0a8.4,8.4,0,1,1-8.4,8.4A8.4,8.4,0,0,1,462,210ZM310.8,260.4a8.4,8.4,0,1,1-8.4,8.4A8.4,8.4,0,0,1,310.8,260.4Zm50.4,0a8.4,8.4,0,1,1-8.4,8.4A8.4,8.4,0,0,1,361.2,260.4Zm50.4,0a8.4,8.4,0,1,1-8.4,8.4A8.4,8.4,0,0,1,411.6,260.4Zm50.4,0a8.4,8.4,0,1,1-8.4,8.4A8.4,8.4,0,0,1,462,260.4Zm-75.6-25.2a8.4,8.4,0,1,1-8.4,8.4A8.4,8.4,0,0,1,386.4,235.2Zm50.4,0a8.4,8.4,0,1,1-8.4,8.4A8.4,8.4,0,0,1,436.8,235.2Z"/>
</svg>
