<svg xmlns="http://www.w3.org/2000/svg" width="66" height="31" viewBox="0 0 66 31"><g><g><path fill="#fff" d="M22.172 10.087c-3.629-1.547-7.546.49-11.293-1.512C6.87 6.44 3.52 9.917.955 12.147c-2.764 2.4 1.107 4.092 2.25 6.128 1.513 2.7 2.846.018 4.212.259.98.176 2.362-.466 2.803.808.442 1.271-.523 1.722-1.717 2.117-3.023 1-1.68 2.752-.645 4.538 1.635 2.823 5.318 1.33 7.656 5.038.102-2.326-.008-3.135.2-3.838.498-1.703-1.341-3.906 1.532-5.167 2.595-1.145 4.13.323 5.788 1.551 1.238.929 2.156 2.089 3.989 1.679 2.406-.543 3.938.28 4.862 2.881.75 2.11 2.708 3.585 4.915 1.722 4.908-4.134 10.572-3.637 16.099-2.555 2.347.463 2.671-.253 2.898-1.943.492-3.613 2.864-5.563 5.964-6.754 1.276-.49 4.795-5.541 4.19-5.578-2.856-.176-4.107-3.599-7.008-3.357-2.987.25-4.964-.848-6.574-3.512-1.45-2.397-3.047-5.5-6.952-2.761-.658.46-2.938-.33-3.632-1.207-2.748-3.469-5.83-2.094-9.006-1.153-2.203.653-4.413 1.419-6.671 1.7-3.998.493-3.547 3.719-2.83 5.737.719 2.02-.172 2.002-1.106 1.607z"/><path fill="#358015" d="M22.172 10.087c-3.629-1.547-7.546.49-11.293-1.512C6.87 6.44 3.52 9.917.955 12.147c-2.764 2.4 1.107 4.092 2.25 6.128 1.513 2.7 2.846.018 4.212.259.98.176 2.362-.466 2.803.808.442 1.271-.523 1.722-1.717 2.117-3.023 1-1.68 2.752-.645 4.538 1.635 2.823 5.318 1.33 7.656 5.038.102-2.326-.008-3.135.2-3.838.498-1.703-1.341-3.906 1.532-5.167 2.595-1.145 4.13.323 5.788 1.551 1.238.929 2.156 2.089 3.989 1.679 2.406-.543 3.938.28 4.862 2.881.75 2.11 2.708 3.585 4.915 1.722 4.908-4.134 10.572-3.637 16.099-2.555 2.347.463 2.671-.253 2.898-1.943.492-3.613 2.864-5.563 5.964-6.754 1.276-.49 4.795-5.541 4.19-5.578-2.856-.176-4.107-3.599-7.008-3.357-2.987.25-4.964-.848-6.574-3.512-1.45-2.397-3.047-5.5-6.952-2.761-.658.46-2.938-.33-3.632-1.207-2.748-3.469-5.83-2.094-9.006-1.153-2.203.653-4.413 1.419-6.671 1.7-3.998.493-3.547 3.719-2.83 5.737.719 2.02-.172 2.002-1.106 1.607z"/></g></g></svg>